<svg xmlns="http://www.w3.org/2000/svg" viewBox="0 0 64 64" role="img" aria-labelledby="title">
  <title>Communal cremation</title>
  <circle cx="32" cy="32" r="30" fill="#f4ead9"/>
  <path d="M20 42c-5-4-8-8-8-14 0-5 4-9 9-9 3 0 5 1 7 4 2-3 4-4 7-4s6 2 8 5c1-1 3-2 5-2 4 0 7 3 7 7 0 6-4 10-10 14l-13 9-12-10Z" fill="#fffdf8" stroke="#382417" stroke-width="2.5" stroke-linejoin="round"/>
  <path d="M24 35c3 2 6 4 8 7 2-3 5-5 8-7" fill="none" stroke="#b88942" stroke-width="2.5" stroke-linecap="round" stroke-linejoin="round"/>
</svg>
