<svg xmlns="http://www.w3.org/2000/svg" viewBox="0 0 64 64" role="img" aria-labelledby="title">
  <title>Cremation options</title>
  <circle cx="32" cy="32" r="30" fill="#f4ead9"/>
  <path d="M34 52c9-4 14-10 14-18 0-8-6-13-12-20 .5 6-2 10-6 13-3-5-8-8-8-15-6 7-8 13-8 20 0 9 6 16 15 20-3-5-2-10 3-16 5 6 6 11 2 16Z" fill="#fffdf8" stroke="#382417" stroke-width="2.5" stroke-linejoin="round"/>
  <path d="M32 47c4-3 6-7 4-12 5 3 7 8 5 12" fill="none" stroke="#b88942" stroke-width="2.5" stroke-linecap="round" stroke-linejoin="round"/>
</svg>
