<svg xmlns="http://www.w3.org/2000/svg" viewBox="0 0 64 64" role="img" aria-labelledby="title">
  <title>Individual cremation</title>
  <circle cx="32" cy="32" r="30" fill="#f4ead9"/>
  <path d="M14 18h36v32H14V18Z" fill="#fffdf8" stroke="#382417" stroke-width="2.5" stroke-linejoin="round"/>
  <path d="M32 19v30" stroke="#382417" stroke-width="2.5" stroke-linecap="round"/>
  <path d="M23 28c3 2 5 5 5 9 0 3-2 6-5 8-3-2-5-5-5-8 0-4 2-7 5-9ZM41 28c3 2 5 5 5 9 0 3-2 6-5 8-3-2-5-5-5-8 0-4 2-7 5-9Z" fill="#ead8b4" stroke="#b88942" stroke-width="2" stroke-linejoin="round"/>
</svg>
